<mxfile host="65bd71144e">
    <diagram id="T1P9fpR9Zt5OswFBoEtl" name="Page-1">
        <mxGraphModel dx="3640" dy="1428" grid="1" gridSize="10" guides="1" tooltips="1" connect="1" arrows="1" fold="1" page="1" pageScale="1" pageWidth="850" pageHeight="1100" background="#ffffff" math="0" shadow="0">
            <root>
                <mxCell id="0"/>
                <mxCell id="1" parent="0"/>
                <mxCell id="162" value="" style="ellipse;html=1;shape=startState;fillColor=#000000;strokeColor=#ff0000;" vertex="1" parent="1">
                    <mxGeometry x="-77.5" y="406" width="30" height="30" as="geometry"/>
                </mxCell>
                <mxCell id="163" value="" style="edgeStyle=orthogonalEdgeStyle;html=1;verticalAlign=bottom;endArrow=open;endSize=8;strokeColor=#ff0000;rounded=0;" edge="1" parent="1" source="162">
                    <mxGeometry relative="1" as="geometry">
                        <mxPoint x="-62.5" y="496" as="targetPoint"/>
                    </mxGeometry>
                </mxCell>
                <mxCell id="164" style="edgeStyle=orthogonalEdgeStyle;rounded=0;orthogonalLoop=1;jettySize=auto;html=1;exitX=0.5;exitY=1;exitDx=0;exitDy=0;" edge="1" parent="1">
                    <mxGeometry relative="1" as="geometry">
                        <mxPoint x="-62.5" y="546" as="sourcePoint"/>
                        <mxPoint x="-62.5" y="546" as="targetPoint"/>
                    </mxGeometry>
                </mxCell>
                <mxCell id="165" value="Display public timeline" style="rounded=1;whiteSpace=wrap;html=1;arcSize=40;fontColor=#000000;fillColor=#ffffc0;strokeColor=#ff0000;" vertex="1" parent="1">
                    <mxGeometry x="-122.5" y="496" width="120" height="40" as="geometry"/>
                </mxCell>
                <mxCell id="166" value="" style="edgeStyle=orthogonalEdgeStyle;html=1;verticalAlign=bottom;endArrow=open;endSize=8;strokeColor=#ff0000;rounded=0;exitX=0.5;exitY=1;exitDx=0;exitDy=0;" edge="1" parent="1" source="165">
                    <mxGeometry relative="1" as="geometry">
                        <mxPoint x="-62.5" y="576" as="targetPoint"/>
                        <Array as="points">
                            <mxPoint x="-62.5" y="556"/>
                            <mxPoint x="-62.5" y="556"/>
                        </Array>
                    </mxGeometry>
                </mxCell>
                <mxCell id="167" style="edgeStyle=orthogonalEdgeStyle;rounded=0;orthogonalLoop=1;jettySize=auto;html=1;entryX=0.5;entryY=0;entryDx=0;entryDy=0;strokeColor=#FF0000;" edge="1" parent="1" source="168" target="172">
                    <mxGeometry relative="1" as="geometry"/>
                </mxCell>
                <mxCell id="168" value="Succesfull?&lt;br&gt;" style="rhombus;whiteSpace=wrap;html=1;fontColor=#000000;fillColor=#ffffc0;strokeColor=#ff0000;" vertex="1" parent="1">
                    <mxGeometry x="-107.5" y="766" width="90" height="40" as="geometry"/>
                </mxCell>
                <mxCell id="169" value="no" style="edgeStyle=orthogonalEdgeStyle;html=1;align=left;verticalAlign=bottom;endArrow=open;endSize=8;strokeColor=#ff0000;rounded=0;entryX=1;entryY=0.5;entryDx=0;entryDy=0;fontColor=#000000;labelBackgroundColor=none;" edge="1" parent="1" source="168" target="165">
                    <mxGeometry x="-1" relative="1" as="geometry">
                        <mxPoint x="72.5" y="726" as="targetPoint"/>
                        <Array as="points">
                            <mxPoint x="42.5" y="786"/>
                            <mxPoint x="42.5" y="516"/>
                        </Array>
                    </mxGeometry>
                </mxCell>
                <mxCell id="170" value="Follow Bella" style="rounded=1;whiteSpace=wrap;html=1;arcSize=40;fontColor=#000000;fillColor=#ffffc0;strokeColor=#ff0000;" vertex="1" parent="1">
                    <mxGeometry x="-122.5" y="676" width="120" height="40" as="geometry"/>
                </mxCell>
                <mxCell id="171" value="" style="edgeStyle=orthogonalEdgeStyle;html=1;verticalAlign=bottom;endArrow=open;endSize=8;strokeColor=#ff0000;rounded=0;exitX=0.5;exitY=1;exitDx=0;exitDy=0;" edge="1" parent="1">
                    <mxGeometry relative="1" as="geometry">
                        <mxPoint x="-62.5" y="766" as="targetPoint"/>
                        <mxPoint x="-59.44117647058829" y="716" as="sourcePoint"/>
                        <Array as="points">
                            <mxPoint x="-62.5" y="736"/>
                            <mxPoint x="-62.5" y="736"/>
                        </Array>
                    </mxGeometry>
                </mxCell>
                <mxCell id="172" value="Follow becomes an ufollow button" style="rounded=1;whiteSpace=wrap;html=1;arcSize=40;fontColor=#000000;fillColor=#ffffc0;strokeColor=#ff0000;" vertex="1" parent="1">
                    <mxGeometry x="-122.5" y="856" width="120" height="40" as="geometry"/>
                </mxCell>
                <mxCell id="173" value="" style="edgeStyle=orthogonalEdgeStyle;html=1;verticalAlign=bottom;endArrow=open;endSize=8;strokeColor=#ff0000;rounded=0;" edge="1" parent="1" source="172">
                    <mxGeometry relative="1" as="geometry">
                        <mxPoint x="-62.5" y="966" as="targetPoint"/>
                    </mxGeometry>
                </mxCell>
                <mxCell id="174" value="yes" style="edgeStyle=orthogonalEdgeStyle;html=1;align=left;verticalAlign=top;endArrow=open;endSize=8;strokeColor=#ff0000;rounded=0;entryX=0.5;entryY=0;entryDx=0;entryDy=0;exitX=0.5;exitY=1;exitDx=0;exitDy=0;labelBackgroundColor=none;fontColor=#000000;" edge="1" parent="1" source="168" target="172">
                    <mxGeometry x="-0.6" y="5" relative="1" as="geometry">
                        <mxPoint x="152.5" y="916" as="targetPoint"/>
                        <mxPoint x="152.5" y="856" as="sourcePoint"/>
                        <mxPoint as="offset"/>
                    </mxGeometry>
                </mxCell>
                <mxCell id="175" value="See a follow button next to a username: Bella" style="rounded=1;whiteSpace=wrap;html=1;arcSize=40;fontColor=#000000;fillColor=#ffffc0;strokeColor=#ff0000;" vertex="1" parent="1">
                    <mxGeometry x="-130" y="576" width="135" height="40" as="geometry"/>
                </mxCell>
                <mxCell id="176" value="" style="edgeStyle=orthogonalEdgeStyle;html=1;verticalAlign=bottom;endArrow=open;endSize=8;strokeColor=#ff0000;rounded=0;" edge="1" parent="1" source="175">
                    <mxGeometry relative="1" as="geometry">
                        <mxPoint x="-62.5" y="676" as="targetPoint"/>
                    </mxGeometry>
                </mxCell>
                <mxCell id="177" value="Go to UserTimeline" style="rounded=1;whiteSpace=wrap;html=1;arcSize=40;fontColor=#000000;fillColor=#ffffc0;strokeColor=#ff0000;" vertex="1" parent="1">
                    <mxGeometry x="-122.5" y="966" width="120" height="40" as="geometry"/>
                </mxCell>
                <mxCell id="178" value="" style="edgeStyle=orthogonalEdgeStyle;html=1;verticalAlign=bottom;endArrow=open;endSize=8;strokeColor=#ff0000;rounded=0;" edge="1" parent="1" source="177">
                    <mxGeometry relative="1" as="geometry">
                        <mxPoint x="-62.5" y="1066" as="targetPoint"/>
                    </mxGeometry>
                </mxCell>
                <mxCell id="179" value="See own cheeps and Bella's cheeps" style="rounded=1;whiteSpace=wrap;html=1;arcSize=40;fontColor=#000000;fillColor=#ffffc0;strokeColor=#ff0000;" vertex="1" parent="1">
                    <mxGeometry x="-122.5" y="1066" width="120" height="40" as="geometry"/>
                </mxCell>
                <mxCell id="180" value="" style="edgeStyle=orthogonalEdgeStyle;html=1;verticalAlign=bottom;endArrow=open;endSize=8;strokeColor=#ff0000;rounded=0;" edge="1" parent="1" source="179" target="181">
                    <mxGeometry relative="1" as="geometry">
                        <mxPoint x="-62.5" y="1166" as="targetPoint"/>
                    </mxGeometry>
                </mxCell>
                <mxCell id="181" value="" style="ellipse;html=1;shape=endState;fillColor=#000000;strokeColor=#ff0000;" vertex="1" parent="1">
                    <mxGeometry x="-77.5" y="1151" width="30" height="30" as="geometry"/>
                </mxCell>
                <mxCell id="182" value="" style="ellipse;html=1;shape=startState;fillColor=#000000;strokeColor=#ff0000;" vertex="1" parent="1">
                    <mxGeometry x="-337.5" y="406" width="30" height="30" as="geometry"/>
                </mxCell>
                <mxCell id="183" value="" style="edgeStyle=orthogonalEdgeStyle;html=1;verticalAlign=bottom;endArrow=open;endSize=8;strokeColor=#ff0000;rounded=0;" edge="1" parent="1" source="182">
                    <mxGeometry relative="1" as="geometry">
                        <mxPoint x="-322.5" y="496" as="targetPoint"/>
                    </mxGeometry>
                </mxCell>
                <mxCell id="184" style="edgeStyle=orthogonalEdgeStyle;rounded=0;orthogonalLoop=1;jettySize=auto;html=1;exitX=0.5;exitY=1;exitDx=0;exitDy=0;" edge="1" parent="1">
                    <mxGeometry relative="1" as="geometry">
                        <mxPoint x="-322.5" y="546" as="sourcePoint"/>
                        <mxPoint x="-322.5" y="546" as="targetPoint"/>
                    </mxGeometry>
                </mxCell>
                <mxCell id="185" value="Display public timeline" style="rounded=1;whiteSpace=wrap;html=1;arcSize=40;fontColor=#000000;fillColor=#ffffc0;strokeColor=#ff0000;" vertex="1" parent="1">
                    <mxGeometry x="-382.5" y="496" width="120" height="40" as="geometry"/>
                </mxCell>
                <mxCell id="186" value="" style="edgeStyle=orthogonalEdgeStyle;html=1;verticalAlign=bottom;endArrow=open;endSize=8;strokeColor=#ff0000;rounded=0;exitX=0.5;exitY=1;exitDx=0;exitDy=0;" edge="1" parent="1" source="185">
                    <mxGeometry relative="1" as="geometry">
                        <mxPoint x="-322.5" y="576" as="targetPoint"/>
                        <Array as="points">
                            <mxPoint x="-322.5" y="556"/>
                            <mxPoint x="-322.5" y="556"/>
                        </Array>
                    </mxGeometry>
                </mxCell>
                <mxCell id="187" style="edgeStyle=orthogonalEdgeStyle;rounded=0;orthogonalLoop=1;jettySize=auto;html=1;entryX=0.5;entryY=0;entryDx=0;entryDy=0;strokeColor=#FF0000;" edge="1" parent="1" source="188" target="190">
                    <mxGeometry relative="1" as="geometry"/>
                </mxCell>
                <mxCell id="188" value="Succesfull?&lt;br&gt;" style="rhombus;whiteSpace=wrap;html=1;fontColor=#000000;fillColor=#ffffc0;strokeColor=#ff0000;" vertex="1" parent="1">
                    <mxGeometry x="-367.5" y="676" width="90" height="40" as="geometry"/>
                </mxCell>
                <mxCell id="189" value="no" style="edgeStyle=orthogonalEdgeStyle;html=1;align=left;verticalAlign=bottom;endArrow=open;endSize=8;strokeColor=#ff0000;rounded=0;entryX=1;entryY=0.5;entryDx=0;entryDy=0;labelBackgroundColor=none;fontColor=#000000;" edge="1" parent="1" source="188" target="185">
                    <mxGeometry x="-1" relative="1" as="geometry">
                        <mxPoint x="-187.5" y="726" as="targetPoint"/>
                        <Array as="points">
                            <mxPoint x="-217" y="696"/>
                            <mxPoint x="-217" y="516"/>
                        </Array>
                    </mxGeometry>
                </mxCell>
                <mxCell id="190" value="Navigationbar changes and cheepBox appear" style="rounded=1;whiteSpace=wrap;html=1;arcSize=40;fontColor=#000000;fillColor=#ffffc0;strokeColor=#ff0000;" vertex="1" parent="1">
                    <mxGeometry x="-396.25" y="766" width="147.5" height="40" as="geometry"/>
                </mxCell>
                <mxCell id="191" value="" style="edgeStyle=orthogonalEdgeStyle;html=1;verticalAlign=bottom;endArrow=open;endSize=8;strokeColor=#ff0000;rounded=0;" edge="1" parent="1" source="190">
                    <mxGeometry relative="1" as="geometry">
                        <mxPoint x="-322.5" y="876" as="targetPoint"/>
                    </mxGeometry>
                </mxCell>
                <mxCell id="192" value="yes" style="edgeStyle=orthogonalEdgeStyle;html=1;align=left;verticalAlign=top;endArrow=open;endSize=8;strokeColor=#ff0000;rounded=0;entryX=0.5;entryY=0;entryDx=0;entryDy=0;exitX=0.5;exitY=1;exitDx=0;exitDy=0;labelBackgroundColor=none;fontColor=#000000;" edge="1" parent="1" source="188" target="190">
                    <mxGeometry x="-0.6" y="5" relative="1" as="geometry">
                        <mxPoint x="-107.5" y="826" as="targetPoint"/>
                        <mxPoint x="-107.5" y="766" as="sourcePoint"/>
                        <mxPoint as="offset"/>
                    </mxGeometry>
                </mxCell>
                <mxCell id="193" value="Login" style="rounded=1;whiteSpace=wrap;html=1;arcSize=40;fontColor=#000000;fillColor=#ffffc0;strokeColor=#ff0000;" vertex="1" parent="1">
                    <mxGeometry x="-382.5" y="576" width="120" height="40" as="geometry"/>
                </mxCell>
                <mxCell id="194" value="" style="edgeStyle=orthogonalEdgeStyle;html=1;verticalAlign=bottom;endArrow=open;endSize=8;strokeColor=#ff0000;rounded=0;" edge="1" parent="1" source="193">
                    <mxGeometry relative="1" as="geometry">
                        <mxPoint x="-322.5" y="676" as="targetPoint"/>
                    </mxGeometry>
                </mxCell>
                <mxCell id="195" value="" style="ellipse;html=1;shape=endState;fillColor=#000000;strokeColor=#ff0000;" vertex="1" parent="1">
                    <mxGeometry x="-337.5" y="876" width="30" height="30" as="geometry"/>
                </mxCell>
                <mxCell id="196" value="" style="ellipse;html=1;shape=startState;fillColor=#000000;strokeColor=#ff0000;" vertex="1" parent="1">
                    <mxGeometry x="-604.25" y="406" width="30" height="30" as="geometry"/>
                </mxCell>
                <mxCell id="197" value="" style="edgeStyle=orthogonalEdgeStyle;html=1;verticalAlign=bottom;endArrow=open;endSize=8;strokeColor=#ff0000;rounded=0;" edge="1" parent="1" source="196">
                    <mxGeometry relative="1" as="geometry">
                        <mxPoint x="-589.2499999999995" y="496" as="targetPoint"/>
                    </mxGeometry>
                </mxCell>
                <mxCell id="198" style="edgeStyle=orthogonalEdgeStyle;rounded=0;orthogonalLoop=1;jettySize=auto;html=1;exitX=0.5;exitY=1;exitDx=0;exitDy=0;" edge="1" parent="1">
                    <mxGeometry relative="1" as="geometry">
                        <mxPoint x="-589.2499999999995" y="546" as="sourcePoint"/>
                        <mxPoint x="-589.2499999999995" y="546" as="targetPoint"/>
                    </mxGeometry>
                </mxCell>
                <mxCell id="199" value="Display public timeline" style="rounded=1;whiteSpace=wrap;html=1;arcSize=40;fontColor=#000000;fillColor=#ffffc0;strokeColor=#ff0000;" vertex="1" parent="1">
                    <mxGeometry x="-649.25" y="496" width="120" height="40" as="geometry"/>
                </mxCell>
                <mxCell id="200" value="" style="edgeStyle=orthogonalEdgeStyle;html=1;verticalAlign=bottom;endArrow=open;endSize=8;strokeColor=#ff0000;rounded=0;exitX=0.5;exitY=1;exitDx=0;exitDy=0;" edge="1" parent="1" source="199">
                    <mxGeometry relative="1" as="geometry">
                        <mxPoint x="-590" y="566" as="targetPoint"/>
                        <Array as="points">
                            <mxPoint x="-589.25" y="556"/>
                            <mxPoint x="-589.25" y="556"/>
                        </Array>
                    </mxGeometry>
                </mxCell>
                <mxCell id="201" style="edgeStyle=orthogonalEdgeStyle;rounded=0;orthogonalLoop=1;jettySize=auto;html=1;entryX=0.5;entryY=0;entryDx=0;entryDy=0;strokeColor=#FF0000;" edge="1" parent="1" source="202" target="204">
                    <mxGeometry relative="1" as="geometry"/>
                </mxCell>
                <mxCell id="202" value="Succesfull?&lt;br&gt;" style="rhombus;whiteSpace=wrap;html=1;fontColor=#000000;fillColor=#ffffc0;strokeColor=#ff0000;" vertex="1" parent="1">
                    <mxGeometry x="-634.25" y="644" width="90" height="40" as="geometry"/>
                </mxCell>
                <mxCell id="203" value="no" style="edgeStyle=orthogonalEdgeStyle;html=1;align=left;verticalAlign=bottom;endArrow=open;endSize=8;strokeColor=#ff0000;rounded=0;entryX=1;entryY=0.5;entryDx=0;entryDy=0;labelBackgroundColor=none;fontColor=#000000;" edge="1" parent="1" source="202" target="199">
                    <mxGeometry x="-1" relative="1" as="geometry">
                        <mxPoint x="-454.25" y="726" as="targetPoint"/>
                        <Array as="points">
                            <mxPoint x="-484" y="666"/>
                            <mxPoint x="-484" y="516"/>
                        </Array>
                    </mxGeometry>
                </mxCell>
                <mxCell id="204" value="Navigationbar changes and cheepBox appear" style="rounded=1;whiteSpace=wrap;html=1;arcSize=40;fontColor=#000000;fillColor=#ffffc0;strokeColor=#ff0000;" vertex="1" parent="1">
                    <mxGeometry x="-663" y="726" width="147.5" height="40" as="geometry"/>
                </mxCell>
                <mxCell id="205" value="yes" style="edgeStyle=orthogonalEdgeStyle;html=1;align=left;verticalAlign=top;endArrow=open;endSize=8;strokeColor=#ff0000;rounded=0;entryX=0.5;entryY=0;entryDx=0;entryDy=0;exitX=0.5;exitY=1;exitDx=0;exitDy=0;fontColor=#000000;labelBackgroundColor=none;" edge="1" parent="1" source="202" target="204">
                    <mxGeometry x="-0.6" y="5" relative="1" as="geometry">
                        <mxPoint x="-374.25" y="826" as="targetPoint"/>
                        <mxPoint x="-374.25" y="766" as="sourcePoint"/>
                        <mxPoint as="offset"/>
                    </mxGeometry>
                </mxCell>
                <mxCell id="206" value="Login" style="rounded=1;whiteSpace=wrap;html=1;arcSize=40;fontColor=#000000;fillColor=#ffffc0;strokeColor=#ff0000;" vertex="1" parent="1">
                    <mxGeometry x="-649.25" y="566" width="120" height="40" as="geometry"/>
                </mxCell>
                <mxCell id="207" value="" style="edgeStyle=orthogonalEdgeStyle;html=1;verticalAlign=bottom;endArrow=open;endSize=8;strokeColor=#ff0000;rounded=0;entryX=0.5;entryY=0;entryDx=0;entryDy=0;" edge="1" parent="1" source="206" target="202">
                    <mxGeometry relative="1" as="geometry">
                        <mxPoint x="-589.25" y="676" as="targetPoint"/>
                    </mxGeometry>
                </mxCell>
                <mxCell id="208" value="Type Cheep" style="rounded=1;whiteSpace=wrap;html=1;arcSize=40;fontColor=#000000;fillColor=#ffffc0;strokeColor=#ff0000;" vertex="1" parent="1">
                    <mxGeometry x="-649.25" y="796" width="120" height="40" as="geometry"/>
                </mxCell>
                <mxCell id="209" value="" style="edgeStyle=orthogonalEdgeStyle;html=1;verticalAlign=bottom;endArrow=open;endSize=8;strokeColor=#ff0000;rounded=0;" edge="1" parent="1" source="208">
                    <mxGeometry relative="1" as="geometry">
                        <mxPoint x="-589.0000000000005" y="876" as="targetPoint"/>
                    </mxGeometry>
                </mxCell>
                <mxCell id="210" value="" style="edgeStyle=orthogonalEdgeStyle;html=1;verticalAlign=bottom;endArrow=open;endSize=8;strokeColor=#ff0000;rounded=0;exitX=0.5;exitY=1;exitDx=0;exitDy=0;" edge="1" parent="1" source="204">
                    <mxGeometry relative="1" as="geometry">
                        <mxPoint x="-589.0000000000005" y="796" as="targetPoint"/>
                        <mxPoint x="-470" y="836" as="sourcePoint"/>
                    </mxGeometry>
                </mxCell>
                <mxCell id="211" value="Press Share" style="rounded=1;whiteSpace=wrap;html=1;arcSize=40;fontColor=#000000;fillColor=#ffffc0;strokeColor=#ff0000;" vertex="1" parent="1">
                    <mxGeometry x="-649.25" y="876" width="120" height="40" as="geometry"/>
                </mxCell>
                <mxCell id="212" value="" style="edgeStyle=orthogonalEdgeStyle;html=1;verticalAlign=bottom;endArrow=open;endSize=8;strokeColor=#ff0000;rounded=0;" edge="1" parent="1" source="211">
                    <mxGeometry relative="1" as="geometry">
                        <mxPoint x="-589.0000000000005" y="956" as="targetPoint"/>
                    </mxGeometry>
                </mxCell>
                <mxCell id="213" value="Succesfull?" style="rhombus;whiteSpace=wrap;html=1;fontColor=#000000;fillColor=#ffffc0;strokeColor=#ff0000;" vertex="1" parent="1">
                    <mxGeometry x="-630" y="956" width="80" height="40" as="geometry"/>
                </mxCell>
                <mxCell id="214" value="no" style="edgeStyle=orthogonalEdgeStyle;html=1;align=left;verticalAlign=bottom;endArrow=open;endSize=8;strokeColor=#ff0000;rounded=0;entryX=1;entryY=0.5;entryDx=0;entryDy=0;fontColor=#000000;labelBackgroundColor=none;" edge="1" parent="1" source="213" target="208">
                    <mxGeometry x="-1" relative="1" as="geometry">
                        <mxPoint x="-450" y="976" as="targetPoint"/>
                        <Array as="points">
                            <mxPoint x="-480" y="976"/>
                            <mxPoint x="-480" y="816"/>
                        </Array>
                    </mxGeometry>
                </mxCell>
                <mxCell id="215" value="yes" style="edgeStyle=orthogonalEdgeStyle;html=1;align=left;verticalAlign=top;endArrow=open;endSize=8;strokeColor=#ff0000;rounded=0;fontColor=#000000;labelBackgroundColor=none;" edge="1" parent="1" source="213">
                    <mxGeometry x="-1" relative="1" as="geometry">
                        <mxPoint x="-590" y="1036" as="targetPoint"/>
                    </mxGeometry>
                </mxCell>
                <mxCell id="216" value="Display User timeline" style="rounded=1;whiteSpace=wrap;html=1;arcSize=40;fontColor=#000000;fillColor=#ffffc0;strokeColor=#ff0000;" vertex="1" parent="1">
                    <mxGeometry x="-649.25" y="1036" width="120" height="40" as="geometry"/>
                </mxCell>
                <mxCell id="217" value="" style="edgeStyle=orthogonalEdgeStyle;html=1;verticalAlign=bottom;endArrow=open;endSize=8;strokeColor=#ff0000;rounded=0;" edge="1" parent="1" source="216">
                    <mxGeometry relative="1" as="geometry">
                        <mxPoint x="-589.0000000000005" y="1126" as="targetPoint"/>
                    </mxGeometry>
                </mxCell>
                <mxCell id="218" value="" style="ellipse;html=1;shape=endState;fillColor=#000000;strokeColor=#ff0000;" vertex="1" parent="1">
                    <mxGeometry x="-603" y="1126" width="30" height="30" as="geometry"/>
                </mxCell>
                <mxCell id="219" value="" style="ellipse;html=1;shape=startState;fillColor=#000000;strokeColor=#ff0000;" vertex="1" parent="1">
                    <mxGeometry x="-831.25" y="406" width="30" height="30" as="geometry"/>
                </mxCell>
                <mxCell id="220" value="" style="edgeStyle=orthogonalEdgeStyle;html=1;verticalAlign=bottom;endArrow=open;endSize=8;strokeColor=#ff0000;rounded=0;" edge="1" parent="1" source="219">
                    <mxGeometry relative="1" as="geometry">
                        <mxPoint x="-816.25" y="496" as="targetPoint"/>
                    </mxGeometry>
                </mxCell>
                <mxCell id="221" style="edgeStyle=orthogonalEdgeStyle;rounded=0;orthogonalLoop=1;jettySize=auto;html=1;exitX=0.5;exitY=1;exitDx=0;exitDy=0;" edge="1" parent="1">
                    <mxGeometry relative="1" as="geometry">
                        <mxPoint x="-816.25" y="546" as="sourcePoint"/>
                        <mxPoint x="-816.25" y="546" as="targetPoint"/>
                    </mxGeometry>
                </mxCell>
                <mxCell id="222" value="Display public timeline" style="rounded=1;whiteSpace=wrap;html=1;arcSize=40;fontColor=#000000;fillColor=#ffffc0;strokeColor=#ff0000;" vertex="1" parent="1">
                    <mxGeometry x="-876.25" y="496" width="120" height="40" as="geometry"/>
                </mxCell>
                <mxCell id="223" value="" style="edgeStyle=orthogonalEdgeStyle;html=1;verticalAlign=bottom;endArrow=open;endSize=8;strokeColor=#ff0000;rounded=0;exitX=0.5;exitY=1;exitDx=0;exitDy=0;" edge="1" parent="1" source="222">
                    <mxGeometry relative="1" as="geometry">
                        <mxPoint x="-817" y="566" as="targetPoint"/>
                        <Array as="points">
                            <mxPoint x="-816.25" y="556"/>
                            <mxPoint x="-816.25" y="556"/>
                        </Array>
                    </mxGeometry>
                </mxCell>
                <mxCell id="224" style="edgeStyle=orthogonalEdgeStyle;rounded=0;orthogonalLoop=1;jettySize=auto;html=1;entryX=0.5;entryY=0;entryDx=0;entryDy=0;strokeColor=#FF0000;" edge="1" parent="1" source="225" target="227">
                    <mxGeometry relative="1" as="geometry"/>
                </mxCell>
                <mxCell id="225" value="Succesfull?&lt;br&gt;" style="rhombus;whiteSpace=wrap;html=1;fontColor=#000000;fillColor=#ffffc0;strokeColor=#ff0000;" vertex="1" parent="1">
                    <mxGeometry x="-861.25" y="644" width="90" height="40" as="geometry"/>
                </mxCell>
                <mxCell id="226" value="no" style="edgeStyle=orthogonalEdgeStyle;html=1;align=left;verticalAlign=bottom;endArrow=open;endSize=8;strokeColor=#ff0000;rounded=0;entryX=1;entryY=0.5;entryDx=0;entryDy=0;labelBackgroundColor=none;fontColor=#000000;" edge="1" parent="1" source="225" target="222">
                    <mxGeometry x="-1" relative="1" as="geometry">
                        <mxPoint x="-681.25" y="726" as="targetPoint"/>
                        <Array as="points">
                            <mxPoint x="-711" y="666"/>
                            <mxPoint x="-711" y="516"/>
                        </Array>
                    </mxGeometry>
                </mxCell>
                <mxCell id="227" value="Display User Timeline" style="rounded=1;whiteSpace=wrap;html=1;arcSize=40;fontColor=#000000;fillColor=#ffffc0;strokeColor=#ff0000;" vertex="1" parent="1">
                    <mxGeometry x="-890" y="726" width="147.5" height="40" as="geometry"/>
                </mxCell>
                <mxCell id="228" value="yes" style="edgeStyle=orthogonalEdgeStyle;html=1;align=left;verticalAlign=top;endArrow=open;endSize=8;strokeColor=#ff0000;rounded=0;entryX=0.5;entryY=0;entryDx=0;entryDy=0;exitX=0.5;exitY=1;exitDx=0;exitDy=0;labelBackgroundColor=none;fontColor=#000000;" edge="1" parent="1" source="225" target="227">
                    <mxGeometry x="-0.6" y="5" relative="1" as="geometry">
                        <mxPoint x="-601.25" y="826" as="targetPoint"/>
                        <mxPoint x="-601.25" y="766" as="sourcePoint"/>
                        <mxPoint as="offset"/>
                    </mxGeometry>
                </mxCell>
                <mxCell id="229" value="Login" style="rounded=1;whiteSpace=wrap;html=1;arcSize=40;fontColor=#000000;fillColor=#ffffc0;strokeColor=#ff0000;" vertex="1" parent="1">
                    <mxGeometry x="-876.25" y="566" width="120" height="40" as="geometry"/>
                </mxCell>
                <mxCell id="230" value="" style="edgeStyle=orthogonalEdgeStyle;html=1;verticalAlign=bottom;endArrow=open;endSize=8;strokeColor=#ff0000;rounded=0;entryX=0.5;entryY=0;entryDx=0;entryDy=0;" edge="1" parent="1" source="229" target="225">
                    <mxGeometry relative="1" as="geometry">
                        <mxPoint x="-816.25" y="676" as="targetPoint"/>
                    </mxGeometry>
                </mxCell>
                <mxCell id="231" value="Type Cheep" style="rounded=1;whiteSpace=wrap;html=1;arcSize=40;fontColor=#000000;fillColor=#ffffc0;strokeColor=#ff0000;" vertex="1" parent="1">
                    <mxGeometry x="-876.25" y="796" width="120" height="40" as="geometry"/>
                </mxCell>
                <mxCell id="232" value="" style="edgeStyle=orthogonalEdgeStyle;html=1;verticalAlign=bottom;endArrow=open;endSize=8;strokeColor=#ff0000;rounded=0;" edge="1" parent="1" source="231">
                    <mxGeometry relative="1" as="geometry">
                        <mxPoint x="-816" y="876" as="targetPoint"/>
                    </mxGeometry>
                </mxCell>
                <mxCell id="233" value="" style="edgeStyle=orthogonalEdgeStyle;html=1;verticalAlign=bottom;endArrow=open;endSize=8;strokeColor=#ff0000;rounded=0;exitX=0.5;exitY=1;exitDx=0;exitDy=0;" edge="1" parent="1" source="227">
                    <mxGeometry relative="1" as="geometry">
                        <mxPoint x="-816" y="796" as="targetPoint"/>
                        <mxPoint x="-697" y="836" as="sourcePoint"/>
                    </mxGeometry>
                </mxCell>
                <mxCell id="234" value="Press Share" style="rounded=1;whiteSpace=wrap;html=1;arcSize=40;fontColor=#000000;fillColor=#ffffc0;strokeColor=#ff0000;" vertex="1" parent="1">
                    <mxGeometry x="-876.25" y="876" width="120" height="40" as="geometry"/>
                </mxCell>
                <mxCell id="235" value="" style="edgeStyle=orthogonalEdgeStyle;html=1;verticalAlign=bottom;endArrow=open;endSize=8;strokeColor=#ff0000;rounded=0;" edge="1" parent="1" source="234">
                    <mxGeometry relative="1" as="geometry">
                        <mxPoint x="-816" y="956" as="targetPoint"/>
                    </mxGeometry>
                </mxCell>
                <mxCell id="236" value="Succesfull?" style="rhombus;whiteSpace=wrap;html=1;fontColor=#000000;fillColor=#ffffc0;strokeColor=#ff0000;" vertex="1" parent="1">
                    <mxGeometry x="-857" y="956" width="80" height="40" as="geometry"/>
                </mxCell>
                <mxCell id="237" value="no" style="edgeStyle=orthogonalEdgeStyle;html=1;align=left;verticalAlign=bottom;endArrow=open;endSize=8;strokeColor=#ff0000;rounded=0;entryX=1;entryY=0.5;entryDx=0;entryDy=0;labelBackgroundColor=none;fontColor=#000000;" edge="1" parent="1" source="236" target="231">
                    <mxGeometry x="-1" relative="1" as="geometry">
                        <mxPoint x="-677" y="976" as="targetPoint"/>
                        <Array as="points">
                            <mxPoint x="-707" y="976"/>
                            <mxPoint x="-707" y="816"/>
                        </Array>
                    </mxGeometry>
                </mxCell>
                <mxCell id="238" value="yes" style="edgeStyle=orthogonalEdgeStyle;html=1;align=left;verticalAlign=top;endArrow=open;endSize=8;strokeColor=#ff0000;rounded=0;labelBackgroundColor=none;fontColor=#000000;" edge="1" parent="1" source="236">
                    <mxGeometry x="-1" relative="1" as="geometry">
                        <mxPoint x="-817" y="1036" as="targetPoint"/>
                    </mxGeometry>
                </mxCell>
                <mxCell id="239" value="Display User timeline" style="rounded=1;whiteSpace=wrap;html=1;arcSize=40;fontColor=#000000;fillColor=#ffffc0;strokeColor=#ff0000;" vertex="1" parent="1">
                    <mxGeometry x="-876.25" y="1036" width="120" height="40" as="geometry"/>
                </mxCell>
                <mxCell id="240" value="" style="edgeStyle=orthogonalEdgeStyle;html=1;verticalAlign=bottom;endArrow=open;endSize=8;strokeColor=#ff0000;rounded=0;" edge="1" parent="1" source="239">
                    <mxGeometry relative="1" as="geometry">
                        <mxPoint x="-816" y="1126" as="targetPoint"/>
                    </mxGeometry>
                </mxCell>
                <mxCell id="241" value="" style="ellipse;html=1;shape=endState;fillColor=#000000;strokeColor=#ff0000;" vertex="1" parent="1">
                    <mxGeometry x="-830" y="1126" width="30" height="30" as="geometry"/>
                </mxCell>
                <mxCell id="242" value="&lt;font color=&quot;#000000&quot; style=&quot;font-size: 19px;&quot;&gt;User Timeline Cheepbox&lt;/font&gt;" style="text;html=1;strokeColor=none;fillColor=none;align=center;verticalAlign=middle;whiteSpace=wrap;rounded=0;" vertex="1" parent="1">
                    <mxGeometry x="-875" y="336" width="120" height="30" as="geometry"/>
                </mxCell>
                <mxCell id="243" value="&lt;font color=&quot;#000000&quot; style=&quot;font-size: 19px;&quot;&gt;Public Timeline Cheepbox&lt;/font&gt;" style="text;html=1;strokeColor=none;fillColor=none;align=center;verticalAlign=middle;whiteSpace=wrap;rounded=0;" vertex="1" parent="1">
                    <mxGeometry x="-655.75" y="336" width="133" height="30" as="geometry"/>
                </mxCell>
                <mxCell id="244" value="&lt;font color=&quot;#000000&quot; style=&quot;font-size: 19px;&quot;&gt;Login&lt;/font&gt;" style="text;html=1;strokeColor=none;fillColor=none;align=center;verticalAlign=middle;whiteSpace=wrap;rounded=0;" vertex="1" parent="1">
                    <mxGeometry x="-382.5" y="336" width="120" height="30" as="geometry"/>
                </mxCell>
                <mxCell id="245" value="&lt;font color=&quot;#000000&quot; style=&quot;font-size: 19px;&quot;&gt;Follow&lt;/font&gt;" style="text;html=1;strokeColor=none;fillColor=none;align=center;verticalAlign=middle;whiteSpace=wrap;rounded=0;" vertex="1" parent="1">
                    <mxGeometry x="-130" y="336" width="120" height="30" as="geometry"/>
                </mxCell>
                <mxCell id="246" value="" style="ellipse;html=1;shape=startState;fillColor=#000000;strokeColor=#ff0000;" vertex="1" parent="1">
                    <mxGeometry x="162.5" y="406" width="30" height="30" as="geometry"/>
                </mxCell>
                <mxCell id="247" value="" style="edgeStyle=orthogonalEdgeStyle;html=1;verticalAlign=bottom;endArrow=open;endSize=8;strokeColor=#ff0000;rounded=0;" edge="1" parent="1" source="246">
                    <mxGeometry relative="1" as="geometry">
                        <mxPoint x="177.5" y="496" as="targetPoint"/>
                    </mxGeometry>
                </mxCell>
                <mxCell id="248" style="edgeStyle=orthogonalEdgeStyle;rounded=0;orthogonalLoop=1;jettySize=auto;html=1;exitX=0.5;exitY=1;exitDx=0;exitDy=0;" edge="1" parent="1">
                    <mxGeometry relative="1" as="geometry">
                        <mxPoint x="177.5" y="546" as="sourcePoint"/>
                        <mxPoint x="177.5" y="546" as="targetPoint"/>
                    </mxGeometry>
                </mxCell>
                <mxCell id="249" value="Display public timeline" style="rounded=1;whiteSpace=wrap;html=1;arcSize=40;fontColor=#000000;fillColor=#ffffc0;strokeColor=#ff0000;" vertex="1" parent="1">
                    <mxGeometry x="117.5" y="496" width="120" height="40" as="geometry"/>
                </mxCell>
                <mxCell id="250" value="" style="edgeStyle=orthogonalEdgeStyle;html=1;verticalAlign=bottom;endArrow=open;endSize=8;strokeColor=#ff0000;rounded=0;exitX=0.5;exitY=1;exitDx=0;exitDy=0;" edge="1" parent="1" source="249">
                    <mxGeometry relative="1" as="geometry">
                        <mxPoint x="177.5" y="576" as="targetPoint"/>
                        <Array as="points">
                            <mxPoint x="177.5" y="556"/>
                            <mxPoint x="177.5" y="556"/>
                        </Array>
                    </mxGeometry>
                </mxCell>
                <mxCell id="251" style="edgeStyle=orthogonalEdgeStyle;rounded=0;orthogonalLoop=1;jettySize=auto;html=1;entryX=0.5;entryY=0;entryDx=0;entryDy=0;strokeColor=#FF0000;" edge="1" parent="1" source="252" target="256">
                    <mxGeometry relative="1" as="geometry"/>
                </mxCell>
                <mxCell id="252" value="Succesfull?&lt;br&gt;" style="rhombus;whiteSpace=wrap;html=1;fontColor=#000000;fillColor=#ffffc0;strokeColor=#ff0000;" vertex="1" parent="1">
                    <mxGeometry x="132.5" y="766" width="90" height="40" as="geometry"/>
                </mxCell>
                <mxCell id="253" value="no" style="edgeStyle=orthogonalEdgeStyle;html=1;align=left;verticalAlign=bottom;endArrow=open;endSize=8;strokeColor=#ff0000;rounded=0;entryX=1;entryY=0.5;entryDx=0;entryDy=0;labelBackgroundColor=none;fontColor=#000000;" edge="1" parent="1" source="252" target="249">
                    <mxGeometry x="-1" relative="1" as="geometry">
                        <mxPoint x="312.5" y="726" as="targetPoint"/>
                        <Array as="points">
                            <mxPoint x="282.5" y="786"/>
                            <mxPoint x="282.5" y="516"/>
                        </Array>
                    </mxGeometry>
                </mxCell>
                <mxCell id="254" value="Unfollow Bella" style="rounded=1;whiteSpace=wrap;html=1;arcSize=40;fontColor=#000000;fillColor=#ffffc0;strokeColor=#ff0000;" vertex="1" parent="1">
                    <mxGeometry x="117.5" y="676" width="120" height="40" as="geometry"/>
                </mxCell>
                <mxCell id="255" value="" style="edgeStyle=orthogonalEdgeStyle;html=1;verticalAlign=bottom;endArrow=open;endSize=8;strokeColor=#ff0000;rounded=0;exitX=0.5;exitY=1;exitDx=0;exitDy=0;" edge="1" parent="1">
                    <mxGeometry relative="1" as="geometry">
                        <mxPoint x="177.5" y="766" as="targetPoint"/>
                        <mxPoint x="180.5588235294117" y="716" as="sourcePoint"/>
                        <Array as="points">
                            <mxPoint x="177.5" y="736"/>
                            <mxPoint x="177.5" y="736"/>
                        </Array>
                    </mxGeometry>
                </mxCell>
                <mxCell id="256" value="Ufollow becomes a follow button" style="rounded=1;whiteSpace=wrap;html=1;arcSize=40;fontColor=#000000;fillColor=#ffffc0;strokeColor=#ff0000;" vertex="1" parent="1">
                    <mxGeometry x="117.5" y="856" width="120" height="40" as="geometry"/>
                </mxCell>
                <mxCell id="257" value="" style="edgeStyle=orthogonalEdgeStyle;html=1;verticalAlign=bottom;endArrow=open;endSize=8;strokeColor=#ff0000;rounded=0;" edge="1" parent="1" source="256">
                    <mxGeometry relative="1" as="geometry">
                        <mxPoint x="177.5" y="966" as="targetPoint"/>
                    </mxGeometry>
                </mxCell>
                <mxCell id="258" value="yes" style="edgeStyle=orthogonalEdgeStyle;html=1;align=left;verticalAlign=top;endArrow=open;endSize=8;strokeColor=#ff0000;rounded=0;entryX=0.5;entryY=0;entryDx=0;entryDy=0;exitX=0.5;exitY=1;exitDx=0;exitDy=0;labelBackgroundColor=none;fontColor=#000000;" edge="1" parent="1" source="252" target="256">
                    <mxGeometry x="-0.6" y="5" relative="1" as="geometry">
                        <mxPoint x="392.5" y="916" as="targetPoint"/>
                        <mxPoint x="392.5" y="856" as="sourcePoint"/>
                        <mxPoint as="offset"/>
                    </mxGeometry>
                </mxCell>
                <mxCell id="259" value="See an ufollow button next to a username: Bella" style="rounded=1;whiteSpace=wrap;html=1;arcSize=40;fontColor=#000000;fillColor=#ffffc0;strokeColor=#ff0000;" vertex="1" parent="1">
                    <mxGeometry x="97.5" y="576" width="160" height="40" as="geometry"/>
                </mxCell>
                <mxCell id="260" value="" style="edgeStyle=orthogonalEdgeStyle;html=1;verticalAlign=bottom;endArrow=open;endSize=8;strokeColor=#ff0000;rounded=0;" edge="1" parent="1" source="259">
                    <mxGeometry relative="1" as="geometry">
                        <mxPoint x="177.5" y="676" as="targetPoint"/>
                    </mxGeometry>
                </mxCell>
                <mxCell id="261" value="Go to UserTimeline" style="rounded=1;whiteSpace=wrap;html=1;arcSize=40;fontColor=#000000;fillColor=#ffffc0;strokeColor=#ff0000;" vertex="1" parent="1">
                    <mxGeometry x="117.5" y="966" width="120" height="40" as="geometry"/>
                </mxCell>
                <mxCell id="262" value="" style="edgeStyle=orthogonalEdgeStyle;html=1;verticalAlign=bottom;endArrow=open;endSize=8;strokeColor=#ff0000;rounded=0;" edge="1" parent="1" source="261">
                    <mxGeometry relative="1" as="geometry">
                        <mxPoint x="177.5" y="1066" as="targetPoint"/>
                    </mxGeometry>
                </mxCell>
                <mxCell id="263" value="See own cheeps and none of Bella's cheeps" style="rounded=1;whiteSpace=wrap;html=1;arcSize=40;fontColor=#000000;fillColor=#ffffc0;strokeColor=#ff0000;" vertex="1" parent="1">
                    <mxGeometry x="102.5" y="1066" width="150" height="40" as="geometry"/>
                </mxCell>
                <mxCell id="264" value="" style="edgeStyle=orthogonalEdgeStyle;html=1;verticalAlign=bottom;endArrow=open;endSize=8;strokeColor=#ff0000;rounded=0;" edge="1" parent="1" source="263" target="265">
                    <mxGeometry relative="1" as="geometry">
                        <mxPoint x="177.5" y="1166" as="targetPoint"/>
                    </mxGeometry>
                </mxCell>
                <mxCell id="265" value="" style="ellipse;html=1;shape=endState;fillColor=#000000;strokeColor=#ff0000;" vertex="1" parent="1">
                    <mxGeometry x="162.5" y="1151" width="30" height="30" as="geometry"/>
                </mxCell>
                <mxCell id="266" value="&lt;font color=&quot;#000000&quot; style=&quot;font-size: 19px;&quot;&gt;Unfollow&lt;/font&gt;" style="text;html=1;strokeColor=none;fillColor=none;align=center;verticalAlign=middle;whiteSpace=wrap;rounded=0;" vertex="1" parent="1">
                    <mxGeometry x="110" y="336" width="120" height="30" as="geometry"/>
                </mxCell>
                <mxCell id="267" value="" style="ellipse;html=1;shape=startState;fillColor=#000000;strokeColor=#ff0000;" vertex="1" parent="1">
                    <mxGeometry x="-1111.25" y="406" width="30" height="30" as="geometry"/>
                </mxCell>
                <mxCell id="268" value="" style="edgeStyle=orthogonalEdgeStyle;html=1;verticalAlign=bottom;endArrow=open;endSize=8;strokeColor=#ff0000;rounded=0;" edge="1" parent="1" source="267">
                    <mxGeometry relative="1" as="geometry">
                        <mxPoint x="-1096.25" y="496" as="targetPoint"/>
                    </mxGeometry>
                </mxCell>
                <mxCell id="269" style="edgeStyle=orthogonalEdgeStyle;rounded=0;orthogonalLoop=1;jettySize=auto;html=1;exitX=0.5;exitY=1;exitDx=0;exitDy=0;" edge="1" parent="1">
                    <mxGeometry relative="1" as="geometry">
                        <mxPoint x="-1096.25" y="546" as="sourcePoint"/>
                        <mxPoint x="-1096.25" y="546" as="targetPoint"/>
                    </mxGeometry>
                </mxCell>
                <mxCell id="270" value="Display userpage" style="rounded=1;whiteSpace=wrap;html=1;arcSize=40;fontColor=#000000;fillColor=#ffffc0;strokeColor=#ff0000;" vertex="1" parent="1">
                    <mxGeometry x="-1156.25" y="496" width="120" height="40" as="geometry"/>
                </mxCell>
                <mxCell id="271" value="" style="edgeStyle=orthogonalEdgeStyle;html=1;verticalAlign=bottom;endArrow=open;endSize=8;strokeColor=#ff0000;rounded=0;exitX=0.5;exitY=1;exitDx=0;exitDy=0;" edge="1" parent="1" source="270">
                    <mxGeometry relative="1" as="geometry">
                        <mxPoint x="-1097" y="566" as="targetPoint"/>
                        <Array as="points">
                            <mxPoint x="-1096.25" y="556"/>
                            <mxPoint x="-1096.25" y="556"/>
                        </Array>
                    </mxGeometry>
                </mxCell>
                <mxCell id="272" value="Press the red Forget Me button" style="rounded=1;whiteSpace=wrap;html=1;arcSize=40;fontColor=#000000;fillColor=#ffffc0;strokeColor=#ff0000;" vertex="1" parent="1">
                    <mxGeometry x="-1156.25" y="566" width="120" height="40" as="geometry"/>
                </mxCell>
                <mxCell id="273" value="" style="edgeStyle=orthogonalEdgeStyle;html=1;verticalAlign=bottom;endArrow=open;endSize=8;strokeColor=#ff0000;rounded=0;entryX=0.5;entryY=0;entryDx=0;entryDy=0;" edge="1" parent="1" source="272">
                    <mxGeometry relative="1" as="geometry">
                        <mxPoint x="-1096.25" y="644" as="targetPoint"/>
                    </mxGeometry>
                </mxCell>
                <mxCell id="274" value="&lt;font color=&quot;#000000&quot; style=&quot;font-size: 19px;&quot;&gt;Profile deletion&lt;/font&gt;" style="text;html=1;strokeColor=none;fillColor=none;align=center;verticalAlign=middle;whiteSpace=wrap;rounded=0;" vertex="1" parent="1">
                    <mxGeometry x="-1155" y="336" width="120" height="30" as="geometry"/>
                </mxCell>
                <mxCell id="275" value="Press confirm on alert box" style="rounded=1;whiteSpace=wrap;html=1;arcSize=40;fontColor=#000000;fillColor=#ffffc0;strokeColor=#ff0000;" vertex="1" parent="1">
                    <mxGeometry x="-1156.25" y="644" width="120" height="40" as="geometry"/>
                </mxCell>
                <mxCell id="276" value="" style="edgeStyle=orthogonalEdgeStyle;html=1;verticalAlign=bottom;endArrow=open;endSize=8;strokeColor=#ff0000;rounded=0;" edge="1" parent="1" source="275">
                    <mxGeometry relative="1" as="geometry">
                        <mxPoint x="-1096.25" y="744" as="targetPoint"/>
                    </mxGeometry>
                </mxCell>
                <mxCell id="277" value="Condition" style="rhombus;whiteSpace=wrap;html=1;fontColor=#000000;fillColor=#ffffc0;strokeColor=#ff0000;" vertex="1" parent="1">
                    <mxGeometry x="-1137" y="743" width="80" height="40" as="geometry"/>
                </mxCell>
                <mxCell id="278" value="no" style="edgeStyle=orthogonalEdgeStyle;html=1;align=left;verticalAlign=bottom;endArrow=open;endSize=8;strokeColor=#ff0000;rounded=0;entryX=1;entryY=0.5;entryDx=0;entryDy=0;labelBackgroundColor=none;fontColor=#000000;" edge="1" parent="1" source="277" target="270">
                    <mxGeometry x="-1" relative="1" as="geometry">
                        <mxPoint x="-957" y="763" as="targetPoint"/>
                        <Array as="points">
                            <mxPoint x="-960" y="763"/>
                            <mxPoint x="-960" y="516"/>
                        </Array>
                    </mxGeometry>
                </mxCell>
                <mxCell id="279" value="yes" style="edgeStyle=orthogonalEdgeStyle;html=1;align=left;verticalAlign=top;endArrow=open;endSize=8;strokeColor=#ff0000;rounded=0;labelBackgroundColor=none;fontColor=#000000;" edge="1" parent="1" source="277">
                    <mxGeometry x="-1" relative="1" as="geometry">
                        <mxPoint x="-1097" y="843" as="targetPoint"/>
                    </mxGeometry>
                </mxCell>
                <mxCell id="280" value="Display public timeline&lt;br&gt;Navigation bar changes to be logged out" style="rounded=1;whiteSpace=wrap;html=1;arcSize=40;fontColor=#000000;fillColor=#ffffc0;strokeColor=#ff0000;" vertex="1" parent="1">
                    <mxGeometry x="-1155" y="841" width="120" height="79" as="geometry"/>
                </mxCell>
                <mxCell id="281" value="" style="edgeStyle=orthogonalEdgeStyle;html=1;verticalAlign=bottom;endArrow=open;endSize=8;strokeColor=#ff0000;rounded=0;" edge="1" parent="1">
                    <mxGeometry relative="1" as="geometry">
                        <mxPoint x="-1095" y="980" as="targetPoint"/>
                        <mxPoint x="-1095" y="921.0000000000005" as="sourcePoint"/>
                    </mxGeometry>
                </mxCell>
                <mxCell id="282" value="" style="ellipse;html=1;shape=endState;fillColor=#000000;strokeColor=#ff0000;" vertex="1" parent="1">
                    <mxGeometry x="-1110" y="980" width="30" height="30" as="geometry"/>
                </mxCell>
                <mxCell id="283" value="" style="ellipse;html=1;shape=startState;fillColor=#000000;strokeColor=#ff0000;" vertex="1" parent="1">
                    <mxGeometry x="398.75" y="406" width="30" height="30" as="geometry"/>
                </mxCell>
                <mxCell id="284" value="" style="edgeStyle=orthogonalEdgeStyle;html=1;verticalAlign=bottom;endArrow=open;endSize=8;strokeColor=#ff0000;rounded=0;" edge="1" parent="1" source="283">
                    <mxGeometry relative="1" as="geometry">
                        <mxPoint x="413.75" y="496" as="targetPoint"/>
                    </mxGeometry>
                </mxCell>
                <mxCell id="285" style="edgeStyle=orthogonalEdgeStyle;rounded=0;orthogonalLoop=1;jettySize=auto;html=1;exitX=0.5;exitY=1;exitDx=0;exitDy=0;" edge="1" parent="1">
                    <mxGeometry relative="1" as="geometry">
                        <mxPoint x="413.75" y="546" as="sourcePoint"/>
                        <mxPoint x="413.75" y="546" as="targetPoint"/>
                    </mxGeometry>
                </mxCell>
                <mxCell id="286" value="&lt;font color=&quot;#000000&quot; style=&quot;font-size: 19px;&quot;&gt;UnAuthorized user experience&lt;/font&gt;" style="text;html=1;strokeColor=none;fillColor=none;align=center;verticalAlign=middle;whiteSpace=wrap;rounded=0;" vertex="1" parent="1">
                    <mxGeometry x="347.25" y="336" width="133" height="30" as="geometry"/>
                </mxCell>
                <mxCell id="287" value="Display public timeline" style="rounded=1;whiteSpace=wrap;html=1;arcSize=40;fontColor=#000000;fillColor=#ffffc0;strokeColor=#ff0000;" vertex="1" parent="1">
                    <mxGeometry x="353.75" y="496" width="120" height="40" as="geometry"/>
                </mxCell>
                <mxCell id="288" value="" style="edgeStyle=orthogonalEdgeStyle;html=1;verticalAlign=bottom;endArrow=open;endSize=8;strokeColor=#ff0000;" edge="1" parent="1" source="287">
                    <mxGeometry relative="1" as="geometry">
                        <mxPoint x="413.75" y="596" as="targetPoint"/>
                    </mxGeometry>
                </mxCell>
                <mxCell id="289" value="See all cheeps" style="rounded=1;whiteSpace=wrap;html=1;arcSize=40;fontColor=#000000;fillColor=#ffffc0;strokeColor=#ff0000;" vertex="1" parent="1">
                    <mxGeometry x="353.75" y="600" width="120" height="40" as="geometry"/>
                </mxCell>
                <mxCell id="290" value="" style="edgeStyle=orthogonalEdgeStyle;html=1;verticalAlign=bottom;endArrow=open;endSize=8;strokeColor=#ff0000;" edge="1" parent="1" source="289">
                    <mxGeometry relative="1" as="geometry">
                        <mxPoint x="413.75" y="700" as="targetPoint"/>
                    </mxGeometry>
                </mxCell>
                <mxCell id="291" value="Sees an author and presses to see all their cheeps" style="rounded=1;whiteSpace=wrap;html=1;arcSize=40;fontColor=#000000;fillColor=#ffffc0;strokeColor=#ff0000;" vertex="1" parent="1">
                    <mxGeometry x="340.63" y="703" width="146.25" height="40" as="geometry"/>
                </mxCell>
                <mxCell id="292" value="" style="edgeStyle=orthogonalEdgeStyle;html=1;verticalAlign=bottom;endArrow=open;endSize=8;strokeColor=#ff0000;" edge="1" parent="1" source="291">
                    <mxGeometry relative="1" as="geometry">
                        <mxPoint x="413.75" y="806" as="targetPoint"/>
                    </mxGeometry>
                </mxCell>
                <mxCell id="293" value="&lt;font color=&quot;#000000&quot;&gt;Successfull?&lt;/font&gt;" style="rhombus;whiteSpace=wrap;html=1;fillColor=#ffffc0;strokeColor=#ff0000;" vertex="1" parent="1">
                    <mxGeometry x="368" y="806" width="95" height="44" as="geometry"/>
                </mxCell>
                <mxCell id="294" value="no" style="edgeStyle=orthogonalEdgeStyle;html=1;align=left;verticalAlign=bottom;endArrow=open;endSize=8;strokeColor=#ff0000;entryX=1;entryY=0.5;entryDx=0;entryDy=0;labelBackgroundColor=none;fontColor=#000000;" edge="1" parent="1" source="293" target="287">
                    <mxGeometry x="-1" relative="1" as="geometry">
                        <mxPoint x="555" y="826" as="targetPoint"/>
                        <Array as="points">
                            <mxPoint x="530" y="828"/>
                            <mxPoint x="530" y="516"/>
                        </Array>
                    </mxGeometry>
                </mxCell>
                <mxCell id="295" value="&lt;font style=&quot;&quot; color=&quot;#000000&quot;&gt;yes&lt;/font&gt;" style="edgeStyle=orthogonalEdgeStyle;html=1;align=left;verticalAlign=top;endArrow=open;endSize=8;strokeColor=#ff0000;labelBackgroundColor=none;" edge="1" parent="1" source="293">
                    <mxGeometry x="-1" relative="1" as="geometry">
                        <mxPoint x="415" y="906" as="targetPoint"/>
                    </mxGeometry>
                </mxCell>
                <mxCell id="296" value="Show the users timeline" style="rounded=1;whiteSpace=wrap;html=1;arcSize=40;fontColor=#000000;fillColor=#ffffc0;strokeColor=#ff0000;" vertex="1" parent="1">
                    <mxGeometry x="355.5" y="906" width="120" height="40" as="geometry"/>
                </mxCell>
                <mxCell id="297" value="" style="edgeStyle=orthogonalEdgeStyle;html=1;verticalAlign=bottom;endArrow=open;endSize=8;strokeColor=#ff0000;fontColor=#000000;" edge="1" parent="1" source="296">
                    <mxGeometry relative="1" as="geometry">
                        <mxPoint x="415.5" y="1006" as="targetPoint"/>
                    </mxGeometry>
                </mxCell>
                <mxCell id="298" value="" style="ellipse;html=1;shape=endState;fillColor=#000000;strokeColor=#ff0000;fontColor=#000000;" vertex="1" parent="1">
                    <mxGeometry x="400.5" y="1006" width="30" height="30" as="geometry"/>
                </mxCell>
            </root>
        </mxGraphModel>
    </diagram>
</mxfile>